<svg width="42" height="42" viewBox="0 0 42 42" fill="none" xmlns="http://www.w3.org/2000/svg">
<path d="M35.6981 5.35986H6.23896C5.5305 5.35986 4.95813 5.93223 4.95813 6.64069V36.0998C4.95813 36.8083 5.5305 37.3806 6.23896 37.3806H35.6981C36.4065 37.3806 36.9789 36.8083 36.9789 36.0998V6.64069C36.9789 5.93223 36.4065 5.35986 35.6981 5.35986ZM14.4563 32.6456H9.70521V17.3637H14.4563V32.6456ZM12.0828 15.2743C11.5381 15.2743 11.0057 15.1128 10.5528 14.8102C10.1 14.5076 9.74701 14.0775 9.53859 13.5743C9.33016 13.0711 9.27562 12.5175 9.38188 11.9833C9.48813 11.4491 9.75041 10.9584 10.1355 10.5733C10.5207 10.1882 11.0113 9.92589 11.5455 9.81964C12.0797 9.71338 12.6334 9.76791 13.1366 9.97634C13.6398 10.1848 14.0699 10.5377 14.3724 10.9906C14.675 11.4434 14.8365 11.9759 14.8365 12.5205C14.8325 14.0415 13.5997 15.2743 12.0828 15.2743ZM32.2438 32.6456H27.4968V25.2127C27.4968 23.4396 27.4647 21.1621 25.0272 21.1621C22.5576 21.1621 22.1773 23.0914 22.1773 25.0847V32.6456H17.4342V17.3637H21.9892V19.453H22.0532C22.6856 18.2522 24.2346 16.9834 26.5481 16.9834C31.3593 16.9834 32.2438 20.1495 32.2438 24.2641V32.6456V32.6456Z" fill="white"/>
</svg>
