<svg width="42" height="42" viewBox="0 0 42 42" fill="none" xmlns="http://www.w3.org/2000/svg">
<path d="M37.645 11.0554C36.4202 11.5838 35.0873 11.964 33.7144 12.1121C35.1398 11.2653 36.2072 9.92748 36.7164 8.34965C35.3788 9.14533 33.9136 9.70327 32.3855 9.99872C31.7469 9.31599 30.9745 8.77209 30.1165 8.40092C29.2585 8.02975 28.3332 7.83926 27.3983 7.84133C23.6159 7.84133 20.5739 10.9073 20.5739 14.6698C20.5739 15.1981 20.6379 15.7264 20.742 16.2348C15.0783 15.9386 10.027 13.2328 6.66887 9.09014C6.05697 10.1353 5.73632 11.3253 5.74026 12.5364C5.74026 14.9059 6.94505 16.9953 8.78224 18.2241C7.69955 18.1814 6.64222 17.8838 5.69624 17.3555V17.4396C5.69624 20.7577 8.04176 23.5075 11.1678 24.1399C10.5808 24.2924 9.97704 24.3704 9.37062 24.3721C8.92633 24.3721 8.50606 24.328 8.08178 24.268C8.94634 26.9737 11.464 28.939 14.4619 29.0031C12.1164 30.8402 9.1785 31.9209 5.98843 31.9209C5.41605 31.9209 4.88771 31.9009 4.33936 31.8369C7.36532 33.7782 10.9556 34.8989 14.8222 34.8989C27.3743 34.8989 34.2428 24.5001 34.2428 15.4743C34.2428 15.1781 34.2428 14.8819 34.2227 14.5857C35.5516 13.6131 36.7164 12.4083 37.645 11.0554Z" fill="white"/>
</svg>
