<svg width="42" height="42" viewBox="0 0 42 42" fill="none" xmlns="http://www.w3.org/2000/svg">
<path d="M35.7103 5.35986H6.25117C5.54271 5.35986 4.97034 5.93223 4.97034 6.64069V36.0998C4.97034 36.8083 5.54271 37.3806 6.25117 37.3806H35.7103C36.4187 37.3806 36.9911 36.8083 36.9911 36.0998V6.64069C36.9911 5.93223 36.4187 5.35986 35.7103 5.35986ZM32.0119 14.7059H29.4542C27.4489 14.7059 27.0607 15.6585 27.0607 17.0595V20.1455H31.8478L31.2234 24.9766H27.0607V37.3806H22.0694V24.9806H17.8947V20.1455H22.0694V16.5831C22.0694 12.4485 24.5951 10.195 28.2855 10.195C30.0546 10.195 31.5716 10.3271 32.0159 10.3871V14.7059H32.0119Z" fill="white"/>
</svg>
