<svg width="47" height="47" viewBox="0 0 47 47" fill="none" xmlns="http://www.w3.org/2000/svg">
<path d="M23.5 27.7103C27.7282 27.7103 31.1667 24.2718 31.1667 20.0436C31.1667 15.8155 27.7282 12.377 23.5 12.377C19.2719 12.377 15.8334 15.8155 15.8334 20.0436C15.8334 24.2718 19.2719 27.7103 23.5 27.7103ZM23.5 16.2103C25.6141 16.2103 27.3334 17.9295 27.3334 20.0436C27.3334 22.1577 25.6141 23.877 23.5 23.877C21.386 23.877 19.6667 22.1577 19.6667 20.0436C19.6667 17.9295 21.386 16.2103 23.5 16.2103Z" fill="black"/>
<path d="M22.3885 42.6873C22.7129 42.9189 23.1015 43.0435 23.5001 43.0435C23.8987 43.0435 24.2874 42.9189 24.6118 42.6873C25.1945 42.2752 38.889 32.3871 38.8335 20.0438C38.8335 11.5894 31.9545 4.71045 23.5001 4.71045C15.0457 4.71045 8.16679 11.5894 8.16679 20.0342C8.11121 32.3871 21.8058 42.2752 22.3885 42.6873ZM23.5001 8.54378C29.8424 8.54378 35.0001 13.7015 35.0001 20.0534C35.0404 28.5595 26.5898 36.1975 23.5001 38.7025C20.4124 36.1955 11.9599 28.5557 12.0001 20.0438C12.0001 13.7015 17.1579 8.54378 23.5001 8.54378Z" fill="white"/>
</svg>
