<svg width="61" height="71" viewBox="0 0 61 71" fill="none" xmlns="http://www.w3.org/2000/svg">
<g clip-path="url(#clip0_62_2739)">
<path d="M18.8893 0.531345C18.5458 0.533557 18.2083 0.621275 17.9072 0.786579C16.9186 1.33455 16.5561 2.60463 17.1038 3.59252L19.3358 7.62283C13.9583 10.9498 10.395 16.6329 10.395 23.1192V24.3244C9.36216 23.1361 7.84411 22.3859 6.14794 22.3859C3.04013 22.3859 0.516846 24.9092 0.516846 28.0167V45.3626C0.516846 48.4699 3.04036 50.9935 6.14794 50.9935C7.84411 50.9935 9.36216 50.243 10.3948 49.0547V51.4845C10.3948 54.7603 13.0754 57.4407 16.3512 57.4407H17.8625V65.157C17.8625 68.2648 20.386 70.7881 23.4936 70.7881C26.6011 70.7881 29.1244 68.2646 29.1244 65.157V57.4407H31.7391V65.157C31.7391 68.2648 34.2626 70.7881 37.3702 70.7881C40.4778 70.7881 43.0011 68.2646 43.0011 65.157V57.4407H44.5125C47.7882 57.4407 50.4687 54.7603 50.4687 51.4845V49.0547C51.5014 50.243 53.0197 50.9935 54.7158 50.9935C57.8234 50.9935 60.3467 48.4699 60.3467 45.3626V28.0167C60.3467 24.9092 57.8234 22.3859 54.7158 22.3859C53.0197 22.3859 51.5014 23.1361 50.4687 24.3244V23.3231V23.2657C50.4692 23.2048 50.4687 23.156 50.4687 23.1192C50.4687 16.6341 46.8973 10.9566 41.5217 7.62939L43.76 3.59252C44.3075 2.60463 43.9451 1.33455 42.9565 0.786579C42.6555 0.621275 42.318 0.533557 41.9745 0.531345C41.2444 0.524313 40.5279 0.909157 40.1506 1.59002L37.8101 5.81814C35.5217 4.97369 33.0317 4.5108 30.432 4.5108C27.8347 4.5108 25.34 4.96877 23.0534 5.81158L20.7132 1.59002C20.3356 0.909157 19.6193 0.524782 18.8893 0.531345Z" fill="white"/>
<path d="M6.14803 23.8525C3.82912 23.8525 1.98389 25.6978 1.98389 28.0167V45.3625C1.98389 47.6815 3.82912 49.5267 6.14803 49.5267C8.46693 49.5267 10.3124 47.6815 10.3124 45.3625V28.0167C10.3124 25.6978 8.46693 23.8525 6.14803 23.8525V23.8525ZM54.7162 23.8525C52.397 23.8525 50.5518 25.6978 50.5518 28.0167V45.3625C50.5518 47.6815 52.397 49.5267 54.7162 49.5267C57.0351 49.5267 58.8803 47.6815 58.8803 45.3625V28.0167C58.8803 25.6978 57.0351 23.8525 54.7162 23.8525V23.8525Z" fill="#A4C639"/>
<path d="M23.4938 43.647C21.1749 43.647 19.3295 45.4922 19.3295 47.8113V65.157C19.3295 67.4759 21.1749 69.3211 23.4938 69.3211C25.8127 69.3211 27.658 67.4759 27.658 65.157V47.8113C27.658 45.4922 25.8127 43.647 23.4938 43.647ZM37.3705 43.647C35.0513 43.647 33.2061 45.4922 33.2061 47.8113V65.157C33.2061 67.4759 35.0513 69.3211 37.3705 69.3211C39.6894 69.3211 41.5346 67.4759 41.5346 65.157V47.8113C41.5346 45.4922 39.6894 43.647 37.3705 43.647Z" fill="#A4C639"/>
<path d="M18.9019 1.99813C18.8034 1.99932 18.7068 2.02561 18.6213 2.07454C18.3244 2.23907 18.2269 2.58032 18.3916 2.87797L21.3253 8.17742C15.6815 11.1141 11.8692 16.6948 11.8617 23.0998H49.0019C48.9942 16.6948 45.1821 11.1139 39.5383 8.17742L42.4718 2.87821C42.6368 2.58055 42.539 2.23907 42.2421 2.07454C42.1566 2.02558 42.06 1.99928 41.9615 1.99813C41.7506 1.99579 41.5512 2.10125 41.4387 2.30422L38.4668 7.66086C36.0358 6.58274 33.3091 5.97735 30.4317 5.97735C27.5543 5.97735 24.8278 6.5825 22.3966 7.66086L19.4248 2.30422C19.3741 2.21019 19.2985 2.13191 19.2063 2.07792C19.1141 2.02394 19.0089 1.99634 18.9021 1.99813H18.9019ZM11.8617 24.5666V51.4845C11.8604 52.0744 11.9757 52.6588 12.2009 53.204C12.426 53.7493 12.7567 54.2447 13.1738 54.6618C13.591 55.0789 14.0864 55.4095 14.6316 55.6347C15.1769 55.8598 15.7612 55.975 16.3512 55.9737H44.5125C45.1024 55.975 45.6868 55.8598 46.2321 55.6346C46.7773 55.4095 47.2728 55.0788 47.6899 54.6617C48.107 54.2446 48.4377 53.7491 48.6628 53.2039C48.888 52.6586 49.0032 52.0742 49.0019 51.4843V24.5668H11.8617V24.5666Z" fill="#A4C639"/>
<path d="M21.8608 13.2026C21.0131 13.2026 20.3112 13.9044 20.3112 14.7521C20.3112 15.6001 21.0131 16.3018 21.8608 16.3018C22.7088 16.3018 23.4105 15.6001 23.4105 14.7521C23.4105 13.9044 22.7088 13.2026 21.8608 13.2026ZM39.0026 13.2026C38.1546 13.2026 37.4529 13.9044 37.4529 14.7521C37.4529 15.6001 38.1546 16.3018 39.0026 16.3018C39.8503 16.3018 40.5522 15.6001 40.5522 14.7521C40.5522 13.9044 39.8503 13.2026 39.0026 13.2026Z" fill="white"/>
</g>
<defs>
<clipPath id="clip0_62_2739">
<rect width="60" height="70.5469" fill="white" transform="translate(0.516846 0.330078)"/>
</clipPath>
</defs>
</svg>
