<svg width="73" height="61" viewBox="0 0 73 61" fill="none" xmlns="http://www.w3.org/2000/svg">
<g clip-path="url(#clip0_62_2745)">
<path d="M36.6578 0.603516C17.3226 0.603516 2.17439 25.2035 0.74115 45.981C6.80876 56.5114 21.4406 60.4697 36.6583 60.4697C51.875 60.4697 66.5076 56.5114 72.5721 45.9807C71.1386 25.2035 55.9924 0.603516 36.658 0.603516" fill="#B6DEFF"/>
<path d="M67.5196 41.0317C67.5196 41.0317 63.2492 31.7991 58.9086 26.4126C54.5649 21.0239 49.2604 15.1562 46.1241 15.1562C42.9894 15.1562 34.2266 30.6712 30.2066 30.6712C26.1858 30.6712 24.0962 23.6379 19.1528 23.6379C14.2075 23.6379 6.35057 40.5982 6.35057 40.5982L5.81818 43.4734C5.81818 43.4734 8.54775 55.5751 37.1038 55.5751C65.661 55.5751 67.9432 43.672 67.9432 43.672L67.5199 41.0315" fill="#66CC66"/>
<path d="M30.6542 37.2921C26.2192 37.2921 23.9457 32.9163 22.7131 30.2152C21.6046 27.782 21.4128 23.9403 18.2677 23.8327C18.5767 23.7101 18.8742 23.6377 19.1531 23.6377C24.0964 23.6377 26.186 30.671 30.2069 30.671C34.2269 30.671 42.9897 15.1558 46.1243 15.1558C46.715 15.1558 47.3804 15.3642 48.1023 15.7349C47.5683 15.6645 46.8835 15.7135 46.3559 16.2428C45.3426 17.2563 36.1446 37.2921 30.6542 37.2921" fill="#17AD49"/>
</g>
<defs>
<clipPath id="clip0_62_2745">
<rect width="72.1127" height="60" fill="white" transform="translate(0.516846 0.603516)"/>
</clipPath>
</defs>
</svg>
