<svg width="151" height="61" viewBox="0 0 151 61" fill="none" xmlns="http://www.w3.org/2000/svg">
<g clip-path="url(#clip0_62_2751)">
<path d="M0.629517 0.603516V4.70459H29.7983V0.603516H0.629517ZM33.931 0.603516V4.70459H75.4978C75.4978 4.70459 71.2519 0.603516 65.6285 0.603516H33.931V0.603516ZM83.652 0.603516V4.70459H108.799L107.307 0.603516H83.652V0.603516ZM126.829 0.603516L125.336 4.70459H150.255V0.603516H126.829V0.603516ZM0.629517 8.57913V12.6802H29.7983V8.57913H0.629517ZM33.931 8.58498V12.6802H80.3212C80.3212 12.6802 79.7795 9.52391 78.8344 8.58498H33.931ZM83.652 8.58498V12.6802H111.556L110.175 8.58498H83.652ZM123.843 8.58498L122.462 12.6802H150.255V8.58498H123.843V8.58498ZM9.01196 16.5547V20.6611H21.6442V16.5547H9.01196ZM42.3134 16.5547V20.6611H54.9456V16.5547H42.3134ZM67.2324 16.5547V20.6611H79.8646C79.8646 20.6611 80.6666 18.4923 80.6666 16.5544H67.2324V16.5547ZM92.0344 16.5547V20.6611H114.43L112.938 16.5544H92.0344V16.5547ZM121.092 16.5547L119.593 20.6614H142.101V16.5547H121.092ZM9.01196 24.5362V28.6367H21.6442V24.5362H9.01196ZM42.3134 24.5362V28.6367H74.5788C74.5788 28.6367 77.2779 26.5323 78.1378 24.5356H42.3134V24.5362ZM92.0344 24.5362V28.6367H104.667V26.3538L105.469 28.6367H128.608L129.469 26.3538V28.6367H142.101V24.5362H118.388L117.129 28.0101L115.865 24.5362H92.0344ZM9.01196 32.5112V36.6123H21.6442V32.5112H9.01196ZM42.3134 32.5112V36.6123H78.1378C77.2776 34.6221 74.5788 32.5112 74.5788 32.5112H42.3134V32.5112ZM92.0344 32.5112V36.6123H104.667V32.5112H92.0344ZM106.961 32.5112L108.489 36.6123H125.839L127.291 32.5112H106.961ZM129.469 32.5112V36.6123H142.101V32.5112H129.469V32.5112ZM9.01196 40.4868V44.5879H21.6442V40.4868H9.01196V40.4868ZM42.3134 40.4868V44.5879H54.9456V40.4868H42.3134ZM67.2324 40.4868V44.5879H80.6666C80.6666 42.6524 79.8646 40.4868 79.8646 40.4868H67.2324V40.4868ZM92.0344 40.4868V44.5879H104.667V40.4868H92.0344V40.4868ZM109.83 40.4868L111.31 44.5879H122.942L124.434 40.4868H109.83V40.4868ZM129.469 40.4868V44.5879H142.101V40.4868H129.469V40.4868ZM0.857809 48.4627V52.5694H30.0266V48.4624H0.857809V48.4627ZM33.931 48.4627V52.5694H78.8344C79.7795 51.629 80.3212 48.4624 80.3212 48.4624H33.931V48.4627ZM83.8802 48.4627V52.5694H104.667V48.4624H83.8802V48.4627ZM112.704 48.4627L114.226 52.5694H120.144L121.572 48.4624H112.704V48.4627ZM129.469 48.4627V52.5694H150.483V48.4624H129.469V48.4627ZM0.857809 56.4439V60.545H30.0266V56.4439H0.857809ZM33.931 56.4439V60.5388H65.6285C71.2519 60.5388 75.4978 56.4436 75.4978 56.4436H33.931V56.4439ZM83.8802 56.4439V60.545H104.667V56.4439H83.8802ZM115.59 56.4439L117.053 60.533L117.305 60.5388L118.791 56.4436H115.59V56.4439ZM129.469 56.4439V60.545H150.483V56.4439H129.469Z" fill="#1F70C1"/>
</g>
<defs>
<clipPath id="clip0_62_2751">
<rect width="149.854" height="60" fill="white" transform="translate(0.629517 0.603516)"/>
</clipPath>
</defs>
</svg>
