<svg width="61" height="61" viewBox="0 0 61 61" fill="none" xmlns="http://www.w3.org/2000/svg">
<g clip-path="url(#clip0_62_2729)">
<path opacity="0.5" d="M30.4448 8.89266V26.138L45.409 17.4975V0.251953L30.4448 8.89266V8.89266Z" fill="#13A049"/>
<path opacity="0.5" d="M30.4449 8.89266L15.481 0.251953V17.5334L30.4449 26.1741V8.89266Z" fill="#A2CC39"/>
<path opacity="0.9" d="M45.409 0.251953L30.4449 8.89266L15.481 0.251953L0.516846 8.89266L30.4449 26.1741L60.3551 8.89266L45.409 0.251953Z" fill="url(#paint0_linear_62_2729)"/>
<path d="M30.4449 26.174L0.516846 8.89258V26.174L15.481 34.8147V52.0783L30.4449 60.719L45.409 52.0783V34.8147L60.3551 26.174V8.89258L30.4449 26.174Z" fill="url(#paint1_linear_62_2729)"/>
<path d="M30.4448 26.174V60.719L45.409 52.0783V34.8147L60.355 26.174V8.89258L30.4448 26.174Z" fill="url(#paint2_linear_62_2729)"/>
<path opacity="0.05" d="M30.4448 43.4375V60.7189L45.409 52.0782L30.4448 43.4375V43.4375Z" fill="black"/>
<path opacity="0.1" d="M30.4449 60.7551V43.4736L15.481 52.1143L30.4449 60.7551Z" fill="black"/>
<path opacity="0.05" d="M15.481 17.5332L0.516846 26.1739L15.481 34.8146L30.4449 26.1739L15.481 17.5332V17.5332Z" fill="black"/>
<path opacity="0.05" d="M45.409 17.5332L30.4448 26.1739L45.409 34.8146L60.355 26.1739L45.409 17.5332V17.5332Z" fill="black"/>
</g>
<defs>
<linearGradient id="paint0_linear_62_2729" x1="60.3623" y1="13.2107" x2="0.516846" y2="13.2107" gradientUnits="userSpaceOnUse">
<stop stop-color="#37BDA6"/>
<stop offset="1" stop-color="#8AD3B8"/>
</linearGradient>
<linearGradient id="paint1_linear_62_2729" x1="60.3623" y1="34.8047" x2="0.516846" y2="34.8047" gradientUnits="userSpaceOnUse">
<stop offset="0.5" stop-color="#4BB6AD"/>
<stop offset="1" stop-color="#78BBC1"/>
</linearGradient>
<linearGradient id="paint2_linear_62_2729" x1="30.4394" y1="34.8047" x2="60.3619" y2="34.8047" gradientUnits="userSpaceOnUse">
<stop stop-color="#4379A7"/>
<stop offset="1" stop-color="#7CC9B8"/>
</linearGradient>
<clipPath id="clip0_62_2729">
<rect width="60" height="60.7031" fill="white" transform="translate(0.516846 0.251953)"/>
</clipPath>
</defs>
</svg>
