<svg width="61" height="65" viewBox="0 0 61 65" fill="none" xmlns="http://www.w3.org/2000/svg">
<g clip-path="url(#clip0_62_2749)">
<path d="M56.4201 52.5542C55.9677 55.9161 53.7053 58.8252 50.5379 60.118C48.9864 60.7637 47.3059 60.9582 45.625 60.7637C44.0092 60.5701 42.3929 60.0528 40.7125 59.0841C38.3851 57.7899 36.058 55.7869 33.3433 52.8132C37.6098 47.5773 40.1947 42.7937 41.1648 38.528C41.6174 36.5239 41.6818 34.7138 41.4883 33.0329C41.23 31.4171 40.648 29.9298 39.7426 28.6372C37.7387 25.7286 34.3778 24.0477 30.6285 24.0477C26.8792 24.0477 23.518 25.7933 21.5141 28.6372C20.6087 29.93 20.0277 31.4171 19.7687 33.0329C19.5104 34.7138 19.5749 36.5884 20.0922 38.5283C21.0615 42.7934 23.7116 47.642 27.9137 52.8769C25.2634 55.8514 22.8716 57.8551 20.5443 59.1481C18.8638 60.118 17.2476 60.6352 15.6318 60.8284C13.9661 61.0144 12.2801 60.7928 10.719 60.1827C7.55146 58.8898 5.28951 55.9798 4.8367 52.6187C4.6431 51.0031 4.77224 49.3873 5.41865 47.5773C5.61224 46.9304 5.93591 46.2852 6.25865 45.5089C6.71146 44.4751 7.22873 43.3754 7.74529 42.2762L7.81045 42.1477C12.2701 32.5156 17.054 22.6904 22.0314 13.1239L22.2252 12.7353C22.7425 11.7666 23.259 10.7328 23.7768 9.76273C24.2936 8.7282 24.8753 7.75836 25.5861 6.91742C26.9436 5.36586 28.7537 4.52562 30.7576 4.52562C32.7615 4.52562 34.5714 5.36586 35.9289 6.91766C36.64 7.75836 37.2217 8.7282 37.739 9.76297C38.2562 10.7328 38.7728 11.7666 39.2901 12.7353L39.4846 13.1239C44.3968 22.7548 49.1807 32.5801 53.6408 42.2122V42.2762C54.1581 43.3107 54.6102 44.4751 55.1275 45.5089C55.4509 46.2852 55.7739 46.9302 55.9675 47.5773C56.4847 49.2577 56.6786 50.8745 56.4203 52.5542H56.4201ZM30.6285 49.5158C27.1382 45.1208 24.8753 40.9834 24.0997 37.4937C23.777 36.0066 23.7116 34.7138 23.9061 33.5502C24.0351 32.5156 24.4234 31.6102 24.9397 30.834C26.1681 29.0902 28.2365 27.9894 30.6285 27.9894C33.0203 27.9894 35.1533 29.0246 36.3168 30.834C36.8336 31.6102 37.2217 32.5156 37.3508 33.5502C37.5447 34.7138 37.48 36.0711 37.157 37.4937C36.3815 40.9194 34.1188 45.0563 30.6285 49.5158ZM59.7815 46.1548C59.4585 45.3791 59.1351 44.5391 58.8121 43.828C58.2948 42.665 57.7776 41.5653 57.325 40.5308L57.2603 40.4668C52.8006 30.77 48.0168 20.9448 42.9747 11.2501L42.7811 10.861C42.2638 9.89141 41.7465 8.85687 41.23 7.82281C40.5831 6.65867 39.9365 5.43172 38.9026 4.26734C36.8333 1.68172 33.8605 0.259766 30.6927 0.259766C27.4607 0.259766 24.5521 1.68172 22.4186 4.13867C21.4494 5.30187 20.7383 6.53 20.0919 7.69437C19.5747 8.7282 19.0574 9.76273 18.5404 10.7328L18.3465 11.1195C13.3696 20.8156 8.5213 30.6416 4.06091 40.3377L3.99646 40.4668C3.54365 41.5006 3.02638 42.5991 2.50912 43.7635C2.16331 44.5296 1.84012 45.3057 1.53998 46.0909C0.699274 48.482 0.440993 50.7448 0.763961 53.0715C1.47552 57.9198 4.70755 61.9927 9.16771 63.8021C10.8479 64.5137 12.5933 64.8366 14.4036 64.8366C14.9207 64.8366 15.5671 64.7719 16.0844 64.7068C18.2172 64.4478 20.4149 63.7381 22.5477 62.5093C25.1985 61.0227 27.7197 58.8898 30.5636 55.7869C33.4075 58.8898 35.9933 61.0229 38.579 62.5093C40.7125 63.7381 42.91 64.4478 45.043 64.7068C45.5603 64.7719 46.2067 64.8366 46.7237 64.8366C48.5338 64.8366 50.3434 64.5137 51.9597 63.8021C56.4845 61.9927 59.6518 57.8553 60.3629 53.0715C60.8802 50.8086 60.6212 48.5473 59.7812 46.1546L59.7815 46.1548Z" fill="#E0565B"/>
</g>
<defs>
<clipPath id="clip0_62_2749">
<rect width="60" height="64.6875" fill="white" transform="translate(0.629517 0.259766)"/>
</clipPath>
</defs>
</svg>
