<svg width="61" height="61" viewBox="0 0 61 61" fill="none" xmlns="http://www.w3.org/2000/svg">
<g clip-path="url(#clip0_62_2726)">
<path d="M13.6568 0.603516H47.3768C54.634 0.603516 60.5168 6.48633 60.5168 13.7435V47.4635C60.5168 54.7207 54.634 60.6035 47.3768 60.6035H13.6568C6.39966 60.6035 0.516846 54.7207 0.516846 47.4635V13.7435C0.516846 6.48633 6.39966 0.603516 13.6568 0.603516Z" fill="url(#paint0_linear_62_2726)"/>
<path d="M19.7454 44.1525L19.7511 44.1544L17.6996 47.7075C16.9508 49.0045 15.2923 49.4489 13.9953 48.7001C12.6985 47.9512 12.2539 46.2928 13.0027 44.9958L14.514 42.3783L14.659 42.127C14.918 41.7548 15.5572 41.1122 16.8357 41.2331C16.8357 41.2331 19.8444 41.5596 20.0621 43.1234C20.0621 43.1234 20.0916 43.6378 19.7454 44.1525V44.1525ZM48.8415 35.0775H42.4444C42.0087 35.0482 41.8187 34.8926 41.7437 34.8021L41.739 34.7939L34.8912 22.9331L34.8823 22.939L34.4717 22.3502C33.7986 21.3209 32.7298 23.9534 32.7298 23.9534C31.4537 26.8868 32.911 30.2217 33.4189 31.2298L42.9303 47.704C43.6789 49.0008 45.3373 49.4454 46.6346 48.6963C47.9314 47.9475 48.376 46.2891 47.6269 44.992L45.2487 40.8727C45.2026 40.7728 45.1224 40.5019 45.6101 40.5007H48.8415C50.3391 40.5007 51.5532 39.2866 51.5532 37.789C51.5532 36.2913 50.3391 35.0773 48.8415 35.0773V35.0775ZM36.4163 38.7637C36.4163 38.7637 36.7578 40.5007 35.4366 40.5007H11.7884C10.2908 40.5007 9.07669 39.2866 9.07669 37.789C9.07669 36.2913 10.2908 35.0773 11.7884 35.0773H17.8681C18.8497 35.0205 19.0822 34.4538 19.0822 34.4538L19.0878 34.4566L27.0237 20.711L27.0214 20.7105C27.166 20.445 27.0455 20.194 27.0247 20.1544L24.4037 15.6148C23.6548 14.318 24.0992 12.6593 25.3962 11.9107C26.6933 11.1619 28.3517 11.606 29.1005 12.903L30.316 15.0084L31.5294 12.9068C32.2782 11.61 33.9366 11.1654 35.2337 11.9144C36.5307 12.6633 36.9751 14.3215 36.2262 15.6185L25.1829 34.7459C25.1347 34.8623 25.1199 35.0452 25.4792 35.0773H32.0801L32.0815 35.1417C32.0815 35.1417 35.8967 35.201 36.4163 38.7637Z" fill="white"/>
</g>
<defs>
<linearGradient id="paint0_linear_62_2726" x1="30.5168" y1="0.603516" x2="30.5168" y2="60.6035" gradientUnits="userSpaceOnUse">
<stop stop-color="#17C9FB"/>
<stop offset="1" stop-color="#1A74E8"/>
</linearGradient>
<clipPath id="clip0_62_2726">
<rect width="60" height="60" fill="white" transform="translate(0.516846 0.603516)"/>
</clipPath>
</defs>
</svg>
