<svg width="26" height="25" viewBox="0 0 26 25" fill="none" xmlns="http://www.w3.org/2000/svg">
<path d="M7.14636 14.2738L10.9197 10.5005L2.66636 2.26046C2.02636 1.62046 0.919691 1.79379 0.519691 2.62046C-0.426976 4.60713 -0.0803094 7.04712 1.55969 8.70046L7.14636 14.2738ZM16.1864 11.8605C18.2264 12.8071 21.093 12.1405 23.213 10.0205C25.7597 7.47379 26.253 3.82046 24.293 1.86046C22.3464 -0.0862074 18.693 0.393793 16.133 2.94046C14.013 5.06046 13.3464 7.92712 14.293 9.96712L2.21302 22.0471C1.96372 22.2964 1.82366 22.6346 1.82366 22.9871C1.82366 23.3397 1.96372 23.6778 2.21302 23.9271C2.46233 24.1764 2.80046 24.3165 3.15302 24.3165C3.50559 24.3165 3.84372 24.1764 4.09302 23.9271L12.3464 15.7005L20.5864 23.9405C20.7098 24.0639 20.8563 24.1618 21.0176 24.2286C21.1789 24.2954 21.3518 24.3298 21.5264 24.3298C21.7009 24.3298 21.8738 24.2954 22.0351 24.2286C22.1964 24.1618 22.3429 24.0639 22.4664 23.9405C22.5898 23.817 22.6877 23.6705 22.7545 23.5092C22.8213 23.3479 22.8557 23.175 22.8557 23.0005C22.8557 22.8259 22.8213 22.653 22.7545 22.4917C22.6877 22.3304 22.5898 22.1839 22.4664 22.0605L14.2264 13.8205L16.1864 11.8605V11.8605Z" fill="#02E4C0"/>
</svg>
