<svg width="29" height="31" viewBox="0 0 29 31" fill="none" xmlns="http://www.w3.org/2000/svg">
<path d="M12.0495 13.7248C13.5285 16.1848 13.311 19.0798 11.542 20.2498C9.773 21.3898 7.134 20.3248 5.6405 17.8648C4.1615 15.4048 4.3935 12.4798 6.1625 11.3398C7.9315 10.1998 10.5705 11.2648 12.0495 13.7248ZM14.5 23.9548C17.4 23.9548 18.125 22.8298 18.125 22.8298C18.125 22.8298 17.4 25.8298 14.5 25.8298C11.6 25.8298 10.875 22.8748 10.875 22.8298C10.875 22.8298 11.6 23.9548 14.5 23.9548ZM22.8375 11.3398C24.6065 12.4798 24.8385 15.4048 23.3595 17.8648C21.866 20.3248 19.227 21.3898 17.458 20.2498C15.689 19.0798 15.4715 16.1848 16.9505 13.7248C18.4295 11.2648 21.0685 10.1998 22.8375 11.3398ZM14.5 27.3298C18.125 27.3298 26.1 19.6198 26.1 13.8298C26.1 8.03983 20.8945 3.32983 14.5 3.32983C8.1055 3.32983 2.9 8.03983 2.9 13.8298C2.9 19.6198 10.875 27.3298 14.5 27.3298ZM14.5 0.329834C22.475 0.329834 29 6.38983 29 13.8298C29 19.9498 20.764 30.3298 14.5 30.3298C8.236 30.3298 0 19.9498 0 13.8298C0 6.38983 6.525 0.329834 14.5 0.329834Z" fill="#02E4C0"/>
</svg>
