<svg width="41" height="20" viewBox="0 0 41 20" fill="none" xmlns="http://www.w3.org/2000/svg">
<path d="M31.775 0.329874C29.315 0.329874 26.9917 1.31872 25.3346 3.03154L13.325 14.0501C12.2317 15.1802 10.7796 15.7982 9.225 15.7982C6.03042 15.7982 3.41667 13.1319 3.41667 9.82985C3.41667 6.52782 6.03042 3.86147 9.225 3.86147C10.7796 3.86147 12.2317 4.47949 13.3933 5.68023L15.3238 7.44603L17.9375 5.07987L15.7508 3.11983C14.8953 2.23222 13.8782 1.52865 12.7581 1.04977C11.6379 0.570899 10.4371 0.32622 9.225 0.329874C4.13417 0.329874 0 4.6031 0 9.82985C0 15.0566 4.13417 19.3298 9.225 19.3298C11.685 19.3298 14.0083 18.341 15.6654 16.6282L27.675 5.6096C28.7683 4.47949 30.2204 3.86147 31.775 3.86147C34.9696 3.86147 37.5833 6.52782 37.5833 9.82985C37.5833 13.1319 34.9696 15.7982 31.775 15.7982C30.2375 15.7982 28.7683 15.1802 27.6067 13.9795L25.625 12.196L23.0625 14.5622L25.2492 16.5399C26.107 17.423 27.125 18.1225 28.2448 18.5983C29.3646 19.074 30.5643 19.3166 31.775 19.3122C36.8658 19.3122 41 15.0566 41 9.82985C41 4.53247 36.8658 0.329874 31.775 0.329874Z" fill="#02E4C0"/>
</svg>
